<?xml version="1.0" encoding="UTF-8"?>
<svg xmlns="http://www.w3.org/2000/svg" xmlns:xlink="http://www.w3.org/1999/xlink" width="3872.97" height="3872.97" viewBox="0 0 3872.97 3872.97">
<defs>
<clipPath id="clip-0">
<path clip-rule="nonzero" d="M 0 0 L 3872.96875 0 L 3872.96875 3872.96875 L 0 3872.96875 Z M 0 0 "/>
</clipPath>
<clipPath id="clip-1">
<path clip-rule="nonzero" d="M 698 781 L 3175 781 L 3175 3093 L 698 3093 Z M 698 781 "/>
</clipPath>
<clipPath id="clip-2">
<path clip-rule="evenodd" d="M 2634.300781 2314.308594 L 2749.070312 2473.769531 L 2749.070312 1901.578125 L 2634.300781 1901.578125 Z M 794.332031 3026.800781 L 1325.46875 2264.691406 L 1494.300781 2496.191406 L 1127.269531 3026.800781 Z M 2340.960938 2520.601562 C 2420.640625 2533.761719 2403.351562 2522.171875 2458.660156 2577.46875 C 2537.011719 2499.089844 2522.570312 2506.019531 2610.050781 2593.460938 L 2711.738281 2534.761719 L 2517.679688 2265.140625 Z M 2604.648438 2667.609375 C 2622.96875 2667.609375 2727.589844 2601.71875 2750.441406 2588.519531 L 3065.890625 3026.800781 L 1990.808594 3026.800781 L 2299.5 2580.558594 L 2382.230469 2594.210938 L 2435.398438 2647.359375 C 2466.71875 2678.738281 2505.78125 2623.578125 2526.371094 2603 C 2543.980469 2620.609375 2581.71875 2667.609375 2604.648438 2667.609375 Z M 1723.851562 2280.171875 L 1918.53125 1998.75 L 2128.800781 2290.890625 L 2004.441406 2348.699219 C 1888.960938 2255.691406 1919.28125 2253.101562 1818.460938 2334.28125 C 1759.890625 2287.121094 1772.441406 2286.609375 1723.851562 2280.171875 Z M 1637.660156 2288.941406 C 1638.46875 2287.578125 1639.371094 2286.28125 1640.359375 2285.058594 L 1890.910156 1922.820312 C 1903.609375 1904.460938 1931.601562 1904.019531 1944.761719 1922.308594 L 2316.929688 2439.460938 L 2490.039062 2189.199219 C 2502.789062 2170.820312 2530.679688 2170.328125 2543.898438 2188.691406 L 2568.390625 2222.730469 L 2568.390625 1901.578125 L 2387.53125 1901.578125 C 2287.21875 1901.578125 2208.640625 1793.351562 2208.640625 1655.179688 C 2208.640625 1540.828125 2263.820312 1445.558594 2340.230469 1417.300781 C 2316.75 1327.820312 2346.378906 1214.921875 2418.828125 1174.308594 C 2356.898438 783.78125 3014.859375 780.210938 2957.820312 1170.828125 C 3034.800781 1207.859375 3067.480469 1324.910156 3043.128906 1417.320312 C 3119.589844 1445.570312 3174.71875 1540.828125 3174.71875 1655.191406 C 3174.761719 1793.351562 3096.179688 1901.578125 2995.851562 1901.578125 L 2814.980469 1901.578125 L 2814.980469 2565.328125 L 3156.480469 3039.859375 C 3172.558594 3061.628906 3156.28125 3092.71875 3130.199219 3092.71875 L 731.167969 3092.71875 C 706.191406 3092.71875 689.023438 3062.359375 704.339844 3040.628906 L 1297.851562 2189.078125 C 1310.640625 2170.761719 1338.46875 2170.601562 1351.5 2188.488281 L 1534.019531 2438.769531 Z M 1999.738281 2420.210938 C 1978.699219 2420.210938 1920.960938 2366.140625 1902.488281 2351.261719 L 1839.101562 2402.300781 C 1827.039062 2412 1809.828125 2412.039062 1797.761719 2402.300781 L 1729.628906 2347.441406 L 1681.71875 2341.078125 L 1207.390625 3026.800781 L 1910.660156 3026.800781 L 2277.140625 2497 L 2167.980469 2345.328125 C 2143.160156 2356.878906 2016.601562 2420.210938 1999.738281 2420.210938 Z M 1892.78125 1775.851562 C 1878.648438 1775.851562 1866.160156 1766.898438 1861.570312 1753.578125 C 1856.441406 1738.820312 1806.800781 1609.53125 1664.738281 1647.609375 C 1623.738281 1658.640625 1606.601562 1594.96875 1647.691406 1583.960938 C 1769.539062 1551.269531 1849.820312 1610.46875 1892.78125 1671.929688 C 1935.71875 1610.46875 2016.011719 1551.269531 2137.851562 1583.960938 C 2178.941406 1594.960938 2161.898438 1658.621094 2120.789062 1647.609375 C 1978.828125 1609.628906 1929.101562 1738.820312 1923.921875 1753.691406 C 1919.300781 1766.910156 1906.820312 1775.851562 1892.78125 1775.851562 Z M 2011.078125 1405.808594 C 1996.980469 1405.808594 1984.449219 1396.828125 1979.898438 1383.46875 C 1974.738281 1368.71875 1925.121094 1239.488281 1783.070312 1277.488281 C 1741.980469 1288.53125 1724.898438 1224.859375 1766 1213.808594 C 1887.808594 1181.128906 1968.121094 1240.339844 2011.058594 1301.78125 C 2054.011719 1240.328125 2134.320312 1181.171875 2256.140625 1213.808594 C 2297.210938 1224.828125 2280.171875 1288.5 2239.078125 1277.488281 C 2093.25 1238.460938 2044.261719 1377.519531 2042.230469 1383.46875 C 2037.730469 1396.839844 2025.191406 1405.808594 2011.078125 1405.808594 Z M 2176.339844 1052.269531 C 2162.171875 1052.269531 2149.699219 1043.339844 2145.109375 1030 C 2139.96875 1015.25 2090.410156 885.949219 1948.300781 924.03125 C 1907.238281 935.070312 1890.191406 871.378906 1931.261719 860.371094 C 2053.101562 827.730469 2133.371094 886.898438 2176.320312 948.371094 C 2219.261719 886.910156 2299.570312 827.691406 2421.410156 860.371094 C 2462.480469 871.390625 2445.449219 935.019531 2404.328125 924.03125 C 2262.320312 886.03125 2212.640625 1015.25 2207.441406 1030.121094 C 2202.851562 1043.359375 2190.339844 1052.269531 2176.339844 1052.269531 Z M 1196.578125 1066.179688 C 1083.609375 1066.179688 991.707031 1158.089844 991.707031 1271.039062 C 991.707031 1383.988281 1083.621094 1475.910156 1196.578125 1475.910156 C 1309.53125 1475.910156 1401.441406 1383.988281 1401.441406 1271.039062 C 1401.441406 1158.089844 1309.53125 1066.179688 1196.578125 1066.179688 Z M 1196.578125 1541.828125 C 1047.269531 1541.828125 925.792969 1420.359375 925.792969 1271.050781 C 925.792969 1121.738281 1047.269531 1000.28125 1196.578125 1000.28125 C 1345.890625 1000.28125 1467.351562 1121.738281 1467.351562 1271.050781 C 1467.351562 1420.359375 1345.871094 1541.828125 1196.578125 1541.828125 Z M 1196.578125 949.171875 C 1178.378906 949.171875 1163.621094 934.398438 1163.621094 916.210938 L 1163.621094 813.191406 C 1163.621094 770.660156 1229.53125 770.660156 1229.53125 813.191406 L 1229.53125 916.199219 C 1229.53125 934.398438 1214.769531 949.171875 1196.578125 949.171875 Z M 1373.960938 996.710938 C 1385.339844 996.710938 1396.421875 990.808594 1402.539062 980.230469 L 1454.039062 891.019531 C 1475.308594 854.179688 1418.210938 821.230469 1396.960938 858.058594 L 1345.460938 947.289062 C 1332.871094 969.078125 1349.488281 996.710938 1373.960938 996.710938 Z M 1503.878906 1126.601562 C 1471.761719 1126.601562 1458.351562 1081.859375 1487.371094 1065.101562 L 1576.578125 1013.578125 C 1613.410156 992.300781 1646.371094 1049.390625 1609.550781 1070.648438 C 1590.25 1081.789062 1522.269531 1126.601562 1503.878906 1126.601562 Z M 1654.410156 1304 L 1551.410156 1304 C 1508.878906 1304 1508.871094 1238.078125 1551.410156 1238.078125 L 1654.410156 1238.078125 C 1696.941406 1238.078125 1696.941406 1304 1654.410156 1304 Z M 1593.050781 1532.941406 C 1625.171875 1532.941406 1638.589844 1488.199219 1609.570312 1471.441406 L 1520.359375 1419.921875 C 1483.539062 1398.660156 1450.558594 1455.710938 1487.378906 1476.980469 C 1506.671875 1488.121094 1574.679688 1532.941406 1593.050781 1532.941406 Z M 1425.511719 1700.519531 C 1414.109375 1700.519531 1403.050781 1694.609375 1396.929688 1684.03125 L 1345.441406 1594.808594 C 1324.171875 1557.980469 1381.269531 1525.03125 1402.519531 1561.859375 L 1454.011719 1651.070312 C 1466.589844 1672.859375 1449.960938 1700.519531 1425.511719 1700.519531 Z M 1196.578125 1761.859375 C 1178.378906 1761.859375 1163.621094 1747.109375 1163.621094 1728.898438 L 1163.621094 1625.898438 C 1163.621094 1583.371094 1229.53125 1583.371094 1229.53125 1625.898438 L 1229.53125 1728.898438 C 1229.53125 1747.078125 1214.769531 1761.859375 1196.578125 1761.859375 Z M 967.625 1700.519531 C 978.992188 1700.519531 990.082031 1694.609375 996.207031 1684.039062 L 1047.691406 1594.808594 C 1068.96875 1558 1011.898438 1525.03125 990.613281 1561.871094 L 939.121094 1651.078125 C 926.542969 1672.871094 943.160156 1700.519531 967.625 1700.519531 Z M 800.085938 1532.941406 C 767.957031 1532.941406 754.550781 1488.191406 783.566406 1471.441406 L 872.773438 1419.921875 C 909.601562 1398.640625 942.566406 1455.730469 905.75 1476.980469 C 886.445312 1488.128906 818.464844 1532.941406 800.085938 1532.941406 Z M 841.738281 1304 L 738.742188 1304 C 696.210938 1304 696.210938 1238.078125 738.742188 1238.078125 L 841.738281 1238.078125 C 884.269531 1238.078125 884.269531 1304 841.738281 1304 Z M 889.253906 1126.601562 C 921.382812 1126.601562 934.757812 1081.859375 905.75 1065.101562 L 816.542969 1013.578125 C 779.695312 992.289062 746.761719 1049.390625 783.566406 1070.648438 C 802.851562 1081.789062 870.882812 1126.601562 889.253906 1126.601562 Z M 1019.179688 996.710938 C 1007.78125 996.710938 996.710938 990.808594 990.59375 980.230469 L 939.101562 891.019531 C 917.824219 854.171875 974.914062 821.261719 996.1875 858.050781 L 1047.679688 947.28125 C 1060.269531 969.070312 1043.621094 996.710938 1019.179688 996.710938 Z M 2658.769531 1750.621094 L 2522.550781 1638.828125 C 2489.671875 1611.871094 2531.46875 1560.910156 2564.371094 1587.910156 L 2658.769531 1665.371094 L 2658.769531 1618.890625 L 2522.550781 1507.109375 C 2489.671875 1480.140625 2531.46875 1429.191406 2564.371094 1456.171875 L 2658.769531 1533.648438 L 2658.769531 1487.199219 L 2522.550781 1375.410156 C 2489.671875 1348.429688 2531.46875 1297.488281 2564.371094 1324.441406 L 2658.769531 1401.929688 L 2658.769531 1318.570312 C 2658.769531 1276.039062 2724.660156 1276.050781 2724.660156 1318.570312 L 2724.660156 1401.921875 L 2819.058594 1324.441406 C 2851.929688 1297.46875 2893.761719 1348.410156 2860.878906 1375.398438 L 2724.660156 1487.199219 L 2724.660156 1533.648438 L 2819.058594 1456.171875 C 2851.929688 1429.191406 2893.738281 1480.128906 2860.878906 1507.109375 L 2724.660156 1618.890625 L 2724.660156 1665.371094 L 2819.058594 1587.910156 C 2851.929688 1560.910156 2893.738281 1611.871094 2860.878906 1638.828125 L 2724.660156 1750.621094 L 2724.660156 1835.660156 L 2995.851562 1835.679688 C 3057.101562 1835.679688 3108.828125 1753.050781 3108.828125 1655.21875 C 3108.828125 1559.519531 3058.199219 1476.890625 2998.28125 1474.800781 C 2975.050781 1473.980469 2959.691406 1448.851562 2969.601562 1427.820312 C 3002.160156 1358.648438 2981.300781 1234.828125 2915.441406 1226.070312 C 2869.25 1219.910156 2895.210938 1167.449219 2895.210938 1124.761719 C 2895.230469 860.550781 2412.410156 891.421875 2488.570312 1186.371094 C 2493.160156 1204.101562 2481.871094 1222.671875 2464.019531 1226.75 C 2400.75 1241.230469 2382.898438 1362.179688 2413.789062 1427.820312 C 2423.679688 1448.859375 2408.328125 1473.980469 2385.109375 1474.800781 C 2325.179688 1476.890625 2274.539062 1559.519531 2274.539062 1655.21875 C 2274.539062 1753.050781 2326.289062 1835.679688 2387.511719 1835.679688 L 2658.769531 1835.660156 L 2658.769531 1750.621094 "/>
</clipPath>
<linearGradient id="linear-pattern-0" gradientUnits="userSpaceOnUse" x1="-0.00767562" y1="0" x2="1.000014" y2="0" gradientTransform="matrix(2466.77, 0, 0, 2466.77, 707.956, 1937)">
<stop offset="0" stop-color="rgb(94.508362%, 95.684814%, 98.03772%)" stop-opacity="1"/>
<stop offset="0.0078125" stop-color="rgb(94.503784%, 95.681763%, 98.036194%)" stop-opacity="1"/>
<stop offset="0.015625" stop-color="rgb(94.303894%, 95.544434%, 97.973633%)" stop-opacity="1"/>
<stop offset="0.0234375" stop-color="rgb(93.914795%, 95.275879%, 97.850037%)" stop-opacity="1"/>
<stop offset="0.03125" stop-color="rgb(93.525696%, 95.007324%, 97.72644%)" stop-opacity="1"/>
<stop offset="0.0390625" stop-color="rgb(93.136597%, 94.73877%, 97.602844%)" stop-opacity="1"/>
<stop offset="0.046875" stop-color="rgb(92.747498%, 94.470215%, 97.479248%)" stop-opacity="1"/>
<stop offset="0.0546875" stop-color="rgb(92.358398%, 94.20166%, 97.355652%)" stop-opacity="1"/>
<stop offset="0.0625" stop-color="rgb(91.970825%, 93.933105%, 97.232056%)" stop-opacity="1"/>
<stop offset="0.0703125" stop-color="rgb(91.581726%, 93.664551%, 97.108459%)" stop-opacity="1"/>
<stop offset="0.078125" stop-color="rgb(91.192627%, 93.395996%, 96.984863%)" stop-opacity="1"/>
<stop offset="0.0859375" stop-color="rgb(90.803528%, 93.127441%, 96.861267%)" stop-opacity="1"/>
<stop offset="0.09375" stop-color="rgb(90.414429%, 92.858887%, 96.737671%)" stop-opacity="1"/>
<stop offset="0.101562" stop-color="rgb(90.02533%, 92.590332%, 96.614075%)" stop-opacity="1"/>
<stop offset="0.109375" stop-color="rgb(89.63623%, 92.321777%, 96.490479%)" stop-opacity="1"/>
<stop offset="0.117188" stop-color="rgb(89.247131%, 92.053223%, 96.366882%)" stop-opacity="1"/>
<stop offset="0.125" stop-color="rgb(88.858032%, 91.784668%, 96.243286%)" stop-opacity="1"/>
<stop offset="0.132812" stop-color="rgb(88.468933%, 91.516113%, 96.121216%)" stop-opacity="1"/>
<stop offset="0.140625" stop-color="rgb(88.079834%, 91.247559%, 95.99762%)" stop-opacity="1"/>
<stop offset="0.148438" stop-color="rgb(87.690735%, 90.979004%, 95.874023%)" stop-opacity="1"/>
<stop offset="0.15625" stop-color="rgb(87.301636%, 90.710449%, 95.750427%)" stop-opacity="1"/>
<stop offset="0.164062" stop-color="rgb(86.912537%, 90.441895%, 95.626831%)" stop-opacity="1"/>
<stop offset="0.171875" stop-color="rgb(86.523438%, 90.17334%, 95.503235%)" stop-opacity="1"/>
<stop offset="0.179688" stop-color="rgb(86.135864%, 89.904785%, 95.379639%)" stop-opacity="1"/>
<stop offset="0.1875" stop-color="rgb(85.746765%, 89.634705%, 95.256042%)" stop-opacity="1"/>
<stop offset="0.195312" stop-color="rgb(85.357666%, 89.36615%, 95.132446%)" stop-opacity="1"/>
<stop offset="0.203125" stop-color="rgb(84.968567%, 89.097595%, 95.00885%)" stop-opacity="1"/>
<stop offset="0.210938" stop-color="rgb(84.579468%, 88.829041%, 94.885254%)" stop-opacity="1"/>
<stop offset="0.21875" stop-color="rgb(84.190369%, 88.560486%, 94.761658%)" stop-opacity="1"/>
<stop offset="0.226562" stop-color="rgb(83.80127%, 88.291931%, 94.638062%)" stop-opacity="1"/>
<stop offset="0.234375" stop-color="rgb(83.41217%, 88.023376%, 94.514465%)" stop-opacity="1"/>
<stop offset="0.242188" stop-color="rgb(83.023071%, 87.754822%, 94.392395%)" stop-opacity="1"/>
<stop offset="0.25" stop-color="rgb(82.633972%, 87.486267%, 94.268799%)" stop-opacity="1"/>
<stop offset="0.257812" stop-color="rgb(82.244873%, 87.217712%, 94.145203%)" stop-opacity="1"/>
<stop offset="0.265625" stop-color="rgb(81.855774%, 86.949158%, 94.021606%)" stop-opacity="1"/>
<stop offset="0.273438" stop-color="rgb(81.466675%, 86.680603%, 93.89801%)" stop-opacity="1"/>
<stop offset="0.28125" stop-color="rgb(81.077576%, 86.412048%, 93.774414%)" stop-opacity="1"/>
<stop offset="0.289062" stop-color="rgb(80.688477%, 86.143494%, 93.650818%)" stop-opacity="1"/>
<stop offset="0.296875" stop-color="rgb(80.300903%, 85.874939%, 93.527222%)" stop-opacity="1"/>
<stop offset="0.304687" stop-color="rgb(79.911804%, 85.606384%, 93.403625%)" stop-opacity="1"/>
<stop offset="0.3125" stop-color="rgb(79.522705%, 85.33783%, 93.280029%)" stop-opacity="1"/>
<stop offset="0.320313" stop-color="rgb(79.133606%, 85.069275%, 93.156433%)" stop-opacity="1"/>
<stop offset="0.328125" stop-color="rgb(78.744507%, 84.80072%, 93.032837%)" stop-opacity="1"/>
<stop offset="0.335938" stop-color="rgb(78.355408%, 84.532166%, 92.909241%)" stop-opacity="1"/>
<stop offset="0.34375" stop-color="rgb(77.966309%, 84.263611%, 92.785645%)" stop-opacity="1"/>
<stop offset="0.351562" stop-color="rgb(77.577209%, 83.995056%, 92.662048%)" stop-opacity="1"/>
<stop offset="0.359375" stop-color="rgb(77.18811%, 83.726501%, 92.539978%)" stop-opacity="1"/>
<stop offset="0.367188" stop-color="rgb(76.799011%, 83.457947%, 92.416382%)" stop-opacity="1"/>
<stop offset="0.375" stop-color="rgb(76.409912%, 83.189392%, 92.292786%)" stop-opacity="1"/>
<stop offset="0.382812" stop-color="rgb(76.020813%, 82.920837%, 92.169189%)" stop-opacity="1"/>
<stop offset="0.390625" stop-color="rgb(75.631714%, 82.652283%, 92.045593%)" stop-opacity="1"/>
<stop offset="0.398438" stop-color="rgb(75.242615%, 82.383728%, 91.921997%)" stop-opacity="1"/>
<stop offset="0.40625" stop-color="rgb(74.853516%, 82.115173%, 91.798401%)" stop-opacity="1"/>
<stop offset="0.414062" stop-color="rgb(74.465942%, 81.846619%, 91.674805%)" stop-opacity="1"/>
<stop offset="0.421875" stop-color="rgb(74.076843%, 81.578064%, 91.551208%)" stop-opacity="1"/>
<stop offset="0.429687" stop-color="rgb(73.687744%, 81.309509%, 91.427612%)" stop-opacity="1"/>
<stop offset="0.4375" stop-color="rgb(73.298645%, 81.040955%, 91.304016%)" stop-opacity="1"/>
<stop offset="0.445313" stop-color="rgb(72.909546%, 80.7724%, 91.18042%)" stop-opacity="1"/>
<stop offset="0.453125" stop-color="rgb(72.520447%, 80.503845%, 91.056824%)" stop-opacity="1"/>
<stop offset="0.460938" stop-color="rgb(72.131348%, 80.235291%, 90.933228%)" stop-opacity="1"/>
<stop offset="0.46875" stop-color="rgb(71.742249%, 79.966736%, 90.809631%)" stop-opacity="1"/>
<stop offset="0.476562" stop-color="rgb(71.353149%, 79.698181%, 90.687561%)" stop-opacity="1"/>
<stop offset="0.484375" stop-color="rgb(70.96405%, 79.428101%, 90.563965%)" stop-opacity="1"/>
<stop offset="0.492188" stop-color="rgb(70.574951%, 79.159546%, 90.440369%)" stop-opacity="1"/>
<stop offset="0.5" stop-color="rgb(70.185852%, 78.890991%, 90.316772%)" stop-opacity="1"/>
<stop offset="0.507812" stop-color="rgb(69.796753%, 78.622437%, 90.193176%)" stop-opacity="1"/>
<stop offset="0.515625" stop-color="rgb(69.407654%, 78.353882%, 90.06958%)" stop-opacity="1"/>
<stop offset="0.523438" stop-color="rgb(69.018555%, 78.085327%, 89.945984%)" stop-opacity="1"/>
<stop offset="0.53125" stop-color="rgb(68.630981%, 77.816772%, 89.822388%)" stop-opacity="1"/>
<stop offset="0.539062" stop-color="rgb(68.241882%, 77.548218%, 89.698792%)" stop-opacity="1"/>
<stop offset="0.546875" stop-color="rgb(67.852783%, 77.279663%, 89.575195%)" stop-opacity="1"/>
<stop offset="0.554688" stop-color="rgb(67.463684%, 77.011108%, 89.451599%)" stop-opacity="1"/>
<stop offset="0.5625" stop-color="rgb(67.074585%, 76.742554%, 89.328003%)" stop-opacity="1"/>
<stop offset="0.570312" stop-color="rgb(66.685486%, 76.473999%, 89.204407%)" stop-opacity="1"/>
<stop offset="0.578125" stop-color="rgb(66.296387%, 76.205444%, 89.080811%)" stop-opacity="1"/>
<stop offset="0.585938" stop-color="rgb(65.907288%, 75.93689%, 88.95874%)" stop-opacity="1"/>
<stop offset="0.59375" stop-color="rgb(65.518188%, 75.668335%, 88.835144%)" stop-opacity="1"/>
<stop offset="0.601562" stop-color="rgb(65.129089%, 75.39978%, 88.711548%)" stop-opacity="1"/>
<stop offset="0.609375" stop-color="rgb(64.73999%, 75.131226%, 88.587952%)" stop-opacity="1"/>
<stop offset="0.617188" stop-color="rgb(64.350891%, 74.862671%, 88.464355%)" stop-opacity="1"/>
<stop offset="0.625" stop-color="rgb(63.961792%, 74.594116%, 88.340759%)" stop-opacity="1"/>
<stop offset="0.632812" stop-color="rgb(63.572693%, 74.325562%, 88.217163%)" stop-opacity="1"/>
<stop offset="0.640625" stop-color="rgb(63.183594%, 74.057007%, 88.093567%)" stop-opacity="1"/>
<stop offset="0.648438" stop-color="rgb(62.794495%, 73.788452%, 87.969971%)" stop-opacity="1"/>
<stop offset="0.65625" stop-color="rgb(62.406921%, 73.519897%, 87.846375%)" stop-opacity="1"/>
<stop offset="0.664062" stop-color="rgb(62.017822%, 73.251343%, 87.722778%)" stop-opacity="1"/>
<stop offset="0.671875" stop-color="rgb(61.628723%, 72.982788%, 87.599182%)" stop-opacity="1"/>
<stop offset="0.679688" stop-color="rgb(61.239624%, 72.714233%, 87.475586%)" stop-opacity="1"/>
<stop offset="0.6875" stop-color="rgb(60.850525%, 72.445679%, 87.35199%)" stop-opacity="1"/>
<stop offset="0.695312" stop-color="rgb(60.461426%, 72.177124%, 87.228394%)" stop-opacity="1"/>
<stop offset="0.703125" stop-color="rgb(60.072327%, 71.908569%, 87.106323%)" stop-opacity="1"/>
<stop offset="0.710938" stop-color="rgb(59.683228%, 71.640015%, 86.982727%)" stop-opacity="1"/>
<stop offset="0.71875" stop-color="rgb(59.294128%, 71.37146%, 86.859131%)" stop-opacity="1"/>
<stop offset="0.726562" stop-color="rgb(58.905029%, 71.102905%, 86.735535%)" stop-opacity="1"/>
<stop offset="0.734375" stop-color="rgb(58.51593%, 70.834351%, 86.611938%)" stop-opacity="1"/>
<stop offset="0.742188" stop-color="rgb(58.126831%, 70.565796%, 86.488342%)" stop-opacity="1"/>
<stop offset="0.75" stop-color="rgb(57.737732%, 70.297241%, 86.364746%)" stop-opacity="1"/>
<stop offset="0.757812" stop-color="rgb(57.348633%, 70.028687%, 86.24115%)" stop-opacity="1"/>
<stop offset="0.765625" stop-color="rgb(56.959534%, 69.760132%, 86.117554%)" stop-opacity="1"/>
<stop offset="0.773438" stop-color="rgb(56.57196%, 69.491577%, 85.993958%)" stop-opacity="1"/>
<stop offset="0.78125" stop-color="rgb(56.182861%, 69.223022%, 85.870361%)" stop-opacity="1"/>
<stop offset="0.789062" stop-color="rgb(55.793762%, 68.952942%, 85.746765%)" stop-opacity="1"/>
<stop offset="0.796875" stop-color="rgb(55.404663%, 68.684387%, 85.623169%)" stop-opacity="1"/>
<stop offset="0.804688" stop-color="rgb(55.015564%, 68.415833%, 85.499573%)" stop-opacity="1"/>
<stop offset="0.8125" stop-color="rgb(54.626465%, 68.147278%, 85.377502%)" stop-opacity="1"/>
<stop offset="0.820312" stop-color="rgb(54.237366%, 67.878723%, 85.253906%)" stop-opacity="1"/>
<stop offset="0.828125" stop-color="rgb(53.848267%, 67.610168%, 85.13031%)" stop-opacity="1"/>
<stop offset="0.835938" stop-color="rgb(53.459167%, 67.341614%, 85.006714%)" stop-opacity="1"/>
<stop offset="0.84375" stop-color="rgb(53.070068%, 67.073059%, 84.883118%)" stop-opacity="1"/>
<stop offset="0.851562" stop-color="rgb(52.680969%, 66.804504%, 84.759521%)" stop-opacity="1"/>
<stop offset="0.859375" stop-color="rgb(52.29187%, 66.53595%, 84.635925%)" stop-opacity="1"/>
<stop offset="0.867188" stop-color="rgb(51.902771%, 66.267395%, 84.512329%)" stop-opacity="1"/>
<stop offset="0.875" stop-color="rgb(51.513672%, 65.99884%, 84.388733%)" stop-opacity="1"/>
<stop offset="0.882812" stop-color="rgb(51.124573%, 65.730286%, 84.265137%)" stop-opacity="1"/>
<stop offset="0.890625" stop-color="rgb(50.737%, 65.461731%, 84.141541%)" stop-opacity="1"/>
<stop offset="0.898438" stop-color="rgb(50.3479%, 65.193176%, 84.017944%)" stop-opacity="1"/>
<stop offset="0.90625" stop-color="rgb(49.958801%, 64.924622%, 83.894348%)" stop-opacity="1"/>
<stop offset="0.914062" stop-color="rgb(49.569702%, 64.656067%, 83.770752%)" stop-opacity="1"/>
<stop offset="0.921875" stop-color="rgb(49.180603%, 64.387512%, 83.647156%)" stop-opacity="1"/>
<stop offset="0.929688" stop-color="rgb(48.791504%, 64.118958%, 83.525085%)" stop-opacity="1"/>
<stop offset="0.9375" stop-color="rgb(48.402405%, 63.850403%, 83.401489%)" stop-opacity="1"/>
<stop offset="0.945312" stop-color="rgb(48.013306%, 63.581848%, 83.277893%)" stop-opacity="1"/>
<stop offset="0.953125" stop-color="rgb(47.624207%, 63.313293%, 83.154297%)" stop-opacity="1"/>
<stop offset="0.960938" stop-color="rgb(47.235107%, 63.044739%, 83.030701%)" stop-opacity="1"/>
<stop offset="0.96875" stop-color="rgb(46.846008%, 62.776184%, 82.907104%)" stop-opacity="1"/>
<stop offset="0.976562" stop-color="rgb(46.456909%, 62.507629%, 82.783508%)" stop-opacity="1"/>
<stop offset="0.984375" stop-color="rgb(46.06781%, 62.239075%, 82.659912%)" stop-opacity="1"/>
<stop offset="0.992188" stop-color="rgb(45.678711%, 61.97052%, 82.536316%)" stop-opacity="1"/>
<stop offset="1" stop-color="rgb(45.291138%, 61.701965%, 82.41272%)" stop-opacity="1"/>
</linearGradient>
</defs>
<g clip-path="url(#clip-0)">
<path fill-rule="evenodd" fill="rgb(20.776367%, 43.138123%, 77.34375%)" fill-opacity="1" d="M 1936.488281 0 C 3001.570312 0 3872.96875 871.410156 3872.96875 1936.480469 C 3872.96875 3001.570312 3001.570312 3872.96875 1936.488281 3872.96875 C 871.414062 3872.96875 0 3001.570312 0 1936.480469 C 0 871.410156 871.414062 0 1936.488281 0 "/>
</g>
<g clip-path="url(#clip-1)">
<g clip-path="url(#clip-2)">
<path fill-rule="nonzero" fill="url(#linear-pattern-0)" d="M 689.023438 770.660156 L 689.023438 3092.71875 L 3174.761719 3092.71875 L 3174.761719 770.660156 Z M 689.023438 770.660156 "/>
</g>
</g>
</svg>
