<?xml version="1.0" encoding="UTF-8"?>
<svg xmlns="http://www.w3.org/2000/svg" xmlns:xlink="http://www.w3.org/1999/xlink" width="3872.98" height="3872.98" viewBox="0 0 3872.98 3872.98">
<defs>
<clipPath id="clip-0">
<path clip-rule="nonzero" d="M 697 697 L 3176 697 L 3176 3176 L 697 3176 Z M 697 697 "/>
</clipPath>
<clipPath id="clip-1">
<path clip-rule="evenodd" d="M 1607.199219 3062.761719 C 1602.511719 3061.378906 1597.828125 3060.011719 1593.148438 3058.570312 L 1584.109375 3055.769531 C 1521.371094 3035.949219 1460.871094 3011.070312 1403.148438 2981.480469 C 1426.03125 2813.570312 1571.328125 2684.980469 1743.078125 2684.980469 C 1794.589844 2684.980469 1844.128906 2696.148438 1890.351562 2718.128906 C 1901.191406 2723.308594 1913.96875 2722.148438 1923.730469 2715.148438 C 1933.488281 2708.140625 1938.679688 2696.398438 1937.28125 2684.480469 C 1935.671875 2670.828125 1934.871094 2657.078125 1934.871094 2643.648438 C 1934.871094 2454.441406 2088.78125 2300.53125 2277.988281 2300.53125 C 2431.859375 2300.53125 2567.859375 2404.011719 2608.738281 2552.160156 C 2612.738281 2566.578125 2625.738281 2575.941406 2640.910156 2576.371094 L 2645.71875 2576.320312 C 2726.109375 2576.320312 2802.480469 2603.890625 2863.820312 2654.558594 C 2804.878906 2730.519531 2736.839844 2799.089844 2661.359375 2858.558594 L 2657.460938 2861.601562 C 2653.628906 2864.589844 2649.75 2867.550781 2645.871094 2870.480469 C 2461.570312 3010.050781 2238.058594 3094.101562 2004.46875 3107.828125 L 2004.019531 3107.871094 C 1999.328125 3108.148438 1994.621094 3108.390625 1989.921875 3108.601562 C 1983.398438 3108.878906 1976.851562 3109.148438 1970.300781 3109.351562 C 1967.039062 3109.449219 1963.789062 3109.488281 1960.519531 3109.570312 C 1953.980469 3109.691406 1947.421875 3109.78125 1940.859375 3109.800781 L 1936.5 3109.839844 L 1933.871094 3109.820312 C 1925.640625 3109.800781 1917.429688 3109.730469 1909.230469 3109.53125 L 1903.191406 3109.371094 C 1895.710938 3109.128906 1888.269531 3108.878906 1880.828125 3108.5 L 1870.601562 3107.96875 C 1864.960938 3107.660156 1859.351562 3107.300781 1853.738281 3106.910156 C 1847.558594 3106.480469 1841.390625 3105.980469 1835.230469 3105.449219 L 1829.96875 3104.980469 C 1754.449219 3098.078125 1679.769531 3083.898438 1607.199219 3062.761719 Z M 1256.910156 1508.570312 C 1187.671875 1508.570312 1123.199219 1545.78125 1088.628906 1605.671875 C 1043.820312 1683.25 1057.601562 1780.710938 1122.128906 1842.648438 C 1133.949219 1853.980469 1135.671875 1872.238281 1126.179688 1885.570312 C 1122.609375 1890.589844 1119.230469 1895.820312 1116.070312 1901.261719 C 1062.558594 1993.910156 1094.449219 2112.878906 1187.140625 2166.398438 C 1216.648438 2183.441406 1250.140625 2192.421875 1283.980469 2192.421875 C 1353.230469 2192.421875 1417.730469 2155.210938 1452.289062 2095.339844 L 1453.539062 2093.058594 C 1460.839844 2079.941406 1476.078125 2073.421875 1490.660156 2077.160156 C 1506.511719 2081.300781 1522.851562 2083.371094 1539.238281 2083.371094 C 1608.46875 2083.351562 1672.980469 2046.160156 1707.53125 1986.289062 C 1733.460938 1941.398438 1740.339844 1889.089844 1726.929688 1839.019531 C 1713.5 1788.929688 1681.390625 1747.078125 1636.488281 1721.148438 C 1629.980469 1717.390625 1623 1713.890625 1615.75 1710.761719 C 1604.738281 1706.019531 1597.160156 1695.648438 1595.980469 1683.699219 C 1594.808594 1671.769531 1600.210938 1660.109375 1610.101562 1653.308594 C 1633.921875 1636.921875 1653.421875 1615.769531 1667.980469 1590.539062 C 1693.898438 1545.628906 1700.789062 1493.308594 1687.378906 1443.238281 C 1673.96875 1393.140625 1641.839844 1351.289062 1596.941406 1325.371094 C 1567.429688 1308.328125 1533.949219 1299.320312 1500.089844 1299.320312 C 1430.851562 1299.320312 1366.328125 1336.53125 1331.769531 1396.410156 C 1317.058594 1421.890625 1308.5 1449.578125 1306.289062 1478.691406 C 1304.921875 1496.828125 1289.078125 1510.628906 1270.988281 1509.078125 C 1266.308594 1508.730469 1261.601562 1508.570312 1256.910156 1508.570312 Z M 2811.71875 1750.390625 C 2805.871094 1750.390625 2799.980469 1751.949219 2794.660156 1755.160156 C 2741.308594 1787.410156 2679.96875 1804.480469 2617.25 1804.480469 C 2525.648438 1804.480469 2439.488281 1768.78125 2374.699219 1703.988281 C 2282.25 1611.539062 2250.28125 1471.980469 2293.238281 1348.441406 C 2299.230469 1331.25 2290.171875 1312.488281 2273.03125 1306.480469 C 2224.308594 1289.371094 2180.980469 1262.078125 2144.199219 1225.300781 C 2023.761719 1104.828125 2011.289062 911.019531 2112.660156 776.390625 L 2114.121094 776.589844 L 2119.96875 777.539062 C 2127.28125 778.691406 2134.589844 779.890625 2141.871094 781.179688 L 2150.070312 782.699219 C 2156.46875 783.878906 2162.871094 785.089844 2169.261719 786.378906 C 2172.488281 787.039062 2175.699219 787.71875 2178.929688 788.398438 C 2184.640625 789.601562 2190.328125 790.851562 2196.011719 792.140625 C 2199.808594 793 2203.609375 793.878906 2207.390625 794.789062 C 2212.078125 795.890625 2216.75 797.050781 2221.421875 798.210938 C 2226.148438 799.410156 2230.871094 800.601562 2235.578125 801.851562 C 2238.949219 802.730469 2242.320312 803.660156 2245.691406 804.589844 C 2251.5 806.179688 2257.328125 807.78125 2263.101562 809.46875 L 2266.390625 810.449219 C 2740.25 950.070312 3087.539062 1383.898438 3108.71875 1887.128906 C 3014.890625 1889.238281 2925.699219 1853.140625 2859.289062 1786.710938 C 2851.671875 1779.121094 2844.21875 1770.929688 2837.148438 1762.359375 C 2830.710938 1754.519531 2821.269531 1750.390625 2811.71875 1750.390625 Z M 3101.890625 1953.179688 C 2992.609375 1953.179688 2889.898438 1910.621094 2812.660156 1833.378906 C 2809.96875 1830.691406 2807.308594 1827.941406 2804.648438 1825.128906 C 2746.96875 1854.871094 2682.75 1870.460938 2617.289062 1870.460938 C 2508.039062 1870.460938 2405.308594 1827.898438 2328.070312 1750.648438 C 2225.378906 1647.941406 2185.269531 1496.441406 2221.730469 1357.078125 C 2175.519531 1336.769531 2133.839844 1308.21875 2097.609375 1271.96875 C 1962.988281 1137.320312 1941.5 925.871094 2038.890625 767.679688 C 2005.121094 764.738281 1971 763.160156 1936.5 763.160156 C 1289.511719 763.160156 763.160156 1289.539062 763.160156 1936.5 C 763.160156 2366.660156 995.875 2743.421875 1341.96875 2947.699219 C 1379.621094 2759.769531 1546.878906 2619.019531 1743.089844 2619.019531 C 1786.378906 2619.019531 1828.511719 2625.621094 1868.941406 2638.71875 C 1871.570312 2415.390625 2054.058594 2234.558594 2277.988281 2234.558594 C 2453.101562 2234.558594 2608.800781 2346.980469 2664.980469 2510.820312 C 2752.601562 2514.910156 2835.238281 2546.449219 2902.851562 2601.230469 C 3030.378906 2416.398438 3106.378906 2193.390625 3109.730469 1953.101562 C 3107.109375 1953.160156 3104.488281 1953.179688 3101.890625 1953.179688 Z M 1905.609375 3175.421875 C 1915.910156 3175.679688 1926.199219 3175.820312 1936.5 3175.820312 C 1945.839844 3175.820312 1955.171875 3175.679688 1964.5 3175.460938 L 1971 3175.300781 C 1978.980469 3175.089844 1986.941406 3174.769531 1994.898438 3174.398438 C 1998.980469 3174.199219 2003.050781 3173.980469 2007.109375 3173.75 C 2010.539062 3173.550781 2013.96875 3173.328125 2017.378906 3173.101562 C 2266.328125 3156.980469 2495.511719 3067.101562 2683.121094 2925.011719 C 2688.699219 2920.808594 2694.210938 2916.558594 2699.710938 2912.28125 L 2702.089844 2910.410156 C 2789.558594 2841.878906 2868.269531 2761.328125 2935.328125 2670.179688 C 2936.570312 2668.488281 2937.640625 2666.710938 2938.5 2664.898438 C 3087.660156 2460.289062 3175.820312 2208.519531 3175.820312 1936.5 C 3175.820312 1930.898438 3175.679688 1925.308594 3175.601562 1919.71875 C 3175.640625 1918.988281 3175.660156 1918.261719 3175.640625 1917.519531 L 3175.460938 1908.558594 L 3175.28125 1901.429688 C 3175.050781 1892.910156 3174.730469 1884.421875 3174.320312 1875.929688 L 3173.871094 1867.648438 C 3173.46875 1860.578125 3173.039062 1853.511719 3172.53125 1846.449219 C 3172.25 1842.738281 3171.96875 1839.050781 3171.660156 1835.359375 C 3171.171875 1829.351562 3170.640625 1823.351562 3170.058594 1817.359375 C 3169.46875 1811.269531 3168.820312 1805.199219 3168.148438 1799.128906 C 3167.800781 1795.929688 3167.441406 1792.730469 3167.050781 1789.539062 C 3166.140625 1781.898438 3165.179688 1774.289062 3164.109375 1766.710938 L 3163.621094 1763.109375 C 3153.460938 1691.058594 3137.148438 1620.96875 3115.140625 1553.421875 L 3113.699219 1549.019531 C 3111.71875 1542.988281 3109.691406 1536.96875 3107.601562 1530.980469 C 3106.039062 1526.480469 3104.46875 1521.980469 3102.851562 1517.488281 C 3101.410156 1513.550781 3099.988281 1509.621094 3098.539062 1505.699219 C 3095.839844 1498.421875 3093.078125 1491.140625 3090.21875 1483.890625 L 3088.980469 1480.75 C 3035.699219 1346 2958.789062 1220.589844 2860.730469 1110.878906 C 2696.519531 927.199219 2482.308594 797.339844 2246.730469 736.488281 L 2244.71875 735.980469 C 2235.71875 733.671875 2226.660156 731.449219 2217.578125 729.351562 L 2214.859375 728.699219 C 2205.921875 726.648438 2196.96875 724.691406 2187.96875 722.828125 L 2184.941406 722.191406 C 2175.800781 720.328125 2166.648438 718.578125 2157.480469 716.929688 L 2151.859375 715.941406 C 2144.078125 714.578125 2136.28125 713.269531 2128.460938 712.058594 L 2120.539062 710.859375 C 2114.75 709.980469 2108.921875 709.148438 2103.089844 708.371094 L 2101.828125 708.230469 C 2047.730469 700.988281 1992.558594 697.171875 1936.5 697.171875 C 1253.121094 697.171875 697.167969 1253.128906 697.167969 1936.5 C 697.167969 2407.039062 960.789062 2817.191406 1348.089844 3026.988281 C 1349.449219 3028.011719 1350.898438 3028.941406 1352.429688 3029.769531 C 1420.371094 3066.128906 1491.710938 3095.980469 1565.238281 3118.980469 L 1572.109375 3121.109375 C 1578.210938 3122.980469 1584.308594 3124.808594 1590.441406 3126.589844 C 1655.898438 3145.660156 1723.570312 3159.429688 1792.988281 3167.460938 L 1795.46875 3167.738281 C 1803.328125 3168.628906 1811.191406 3169.46875 1819.078125 3170.21875 C 1824.128906 3170.691406 1829.179688 3171.148438 1834.21875 3171.558594 C 1838.410156 3171.921875 1842.609375 3172.25 1846.800781 3172.550781 C 1854.570312 3173.121094 1862.339844 3173.609375 1870.128906 3174.019531 L 1875.660156 3174.300781 C 1884.839844 3174.75 1894.03125 3175.109375 1903.21875 3175.359375 Z M 1283.980469 2258.410156 C 1238.578125 2258.410156 1193.691406 2246.359375 1154.171875 2223.550781 C 1030.671875 2152.21875 987.738281 1994.210938 1057.78125 1870.328125 C 987.589844 1787.328125 976.085938 1668.640625 1031.511719 1572.671875 C 1075.78125 1495.96875 1156.679688 1447.050781 1244.699219 1442.878906 C 1250.199219 1415.070312 1260.230469 1388.460938 1274.660156 1363.421875 C 1320.988281 1283.191406 1407.378906 1233.351562 1500.109375 1233.351562 C 1545.519531 1233.351562 1590.410156 1245.398438 1629.929688 1268.210938 C 1690.089844 1302.941406 1733.140625 1359.019531 1751.109375 1426.128906 C 1769.101562 1493.21875 1759.871094 1563.308594 1725.140625 1623.46875 C 1714.261719 1642.300781 1701.359375 1659.429688 1686.519531 1674.699219 C 1737.769531 1709.71875 1774.449219 1761.328125 1790.671875 1821.910156 C 1808.648438 1889.011719 1799.429688 1959.109375 1764.671875 2019.269531 C 1718.371094 2099.480469 1631.988281 2149.320312 1539.261719 2149.320312 C 1525.480469 2149.320312 1511.738281 2148.21875 1498.148438 2146.050781 C 1449.679688 2215.980469 1369.550781 2258.410156 1283.980469 2258.410156 "/>
</clipPath>
<linearGradient id="linear-pattern-0" gradientUnits="userSpaceOnUse" x1="0.000000000000000056" y1="0" x2="1.000001" y2="0" gradientTransform="matrix(2478.65, 0, 0, 2478.65, 697.167, 1936.49)">
<stop offset="0" stop-color="rgb(95.684814%, 96.861267%, 98.822021%)" stop-opacity="1"/>
<stop offset="0.00390625" stop-color="rgb(95.446777%, 96.69342%, 98.74115%)" stop-opacity="1"/>
<stop offset="0.0078125" stop-color="rgb(95.210266%, 96.525574%, 98.660278%)" stop-opacity="1"/>
<stop offset="0.0117187" stop-color="rgb(94.972229%, 96.356201%, 98.579407%)" stop-opacity="1"/>
<stop offset="0.015625" stop-color="rgb(94.735718%, 96.188354%, 98.498535%)" stop-opacity="1"/>
<stop offset="0.0195312" stop-color="rgb(94.497681%, 96.018982%, 98.416138%)" stop-opacity="1"/>
<stop offset="0.0234375" stop-color="rgb(94.261169%, 95.851135%, 98.335266%)" stop-opacity="1"/>
<stop offset="0.0273437" stop-color="rgb(94.023132%, 95.681763%, 98.254395%)" stop-opacity="1"/>
<stop offset="0.03125" stop-color="rgb(93.786621%, 95.513916%, 98.173523%)" stop-opacity="1"/>
<stop offset="0.0351562" stop-color="rgb(93.548584%, 95.344543%, 98.091125%)" stop-opacity="1"/>
<stop offset="0.0390625" stop-color="rgb(93.310547%, 95.176697%, 98.010254%)" stop-opacity="1"/>
<stop offset="0.0429687" stop-color="rgb(93.07251%, 95.007324%, 97.929382%)" stop-opacity="1"/>
<stop offset="0.046875" stop-color="rgb(92.835999%, 94.839478%, 97.848511%)" stop-opacity="1"/>
<stop offset="0.0507812" stop-color="rgb(92.597961%, 94.670105%, 97.767639%)" stop-opacity="1"/>
<stop offset="0.0546875" stop-color="rgb(92.36145%, 94.502258%, 97.686768%)" stop-opacity="1"/>
<stop offset="0.0585937" stop-color="rgb(92.123413%, 94.334412%, 97.60437%)" stop-opacity="1"/>
<stop offset="0.0625" stop-color="rgb(91.886902%, 94.166565%, 97.523499%)" stop-opacity="1"/>
<stop offset="0.0664062" stop-color="rgb(91.648865%, 93.997192%, 97.442627%)" stop-opacity="1"/>
<stop offset="0.0703125" stop-color="rgb(91.412354%, 93.829346%, 97.361755%)" stop-opacity="1"/>
<stop offset="0.0742187" stop-color="rgb(91.174316%, 93.659973%, 97.279358%)" stop-opacity="1"/>
<stop offset="0.078125" stop-color="rgb(90.936279%, 93.492126%, 97.198486%)" stop-opacity="1"/>
<stop offset="0.0820312" stop-color="rgb(90.698242%, 93.322754%, 97.117615%)" stop-opacity="1"/>
<stop offset="0.0859375" stop-color="rgb(90.461731%, 93.154907%, 97.036743%)" stop-opacity="1"/>
<stop offset="0.0898437" stop-color="rgb(90.223694%, 92.985535%, 96.954346%)" stop-opacity="1"/>
<stop offset="0.09375" stop-color="rgb(89.987183%, 92.817688%, 96.873474%)" stop-opacity="1"/>
<stop offset="0.0976562" stop-color="rgb(89.749146%, 92.648315%, 96.792603%)" stop-opacity="1"/>
<stop offset="0.101562" stop-color="rgb(89.512634%, 92.480469%, 96.711731%)" stop-opacity="1"/>
<stop offset="0.105469" stop-color="rgb(89.274597%, 92.311096%, 96.630859%)" stop-opacity="1"/>
<stop offset="0.109375" stop-color="rgb(89.03656%, 92.14325%, 96.549988%)" stop-opacity="1"/>
<stop offset="0.113281" stop-color="rgb(88.798523%, 91.973877%, 96.46759%)" stop-opacity="1"/>
<stop offset="0.117187" stop-color="rgb(88.562012%, 91.80603%, 96.386719%)" stop-opacity="1"/>
<stop offset="0.121094" stop-color="rgb(88.323975%, 91.638184%, 96.305847%)" stop-opacity="1"/>
<stop offset="0.125" stop-color="rgb(88.087463%, 91.470337%, 96.224976%)" stop-opacity="1"/>
<stop offset="0.128906" stop-color="rgb(87.849426%, 91.300964%, 96.142578%)" stop-opacity="1"/>
<stop offset="0.132812" stop-color="rgb(87.612915%, 91.133118%, 96.061707%)" stop-opacity="1"/>
<stop offset="0.136719" stop-color="rgb(87.374878%, 90.963745%, 95.980835%)" stop-opacity="1"/>
<stop offset="0.140625" stop-color="rgb(87.138367%, 90.795898%, 95.899963%)" stop-opacity="1"/>
<stop offset="0.144531" stop-color="rgb(86.90033%, 90.626526%, 95.819092%)" stop-opacity="1"/>
<stop offset="0.148437" stop-color="rgb(86.662292%, 90.458679%, 95.73822%)" stop-opacity="1"/>
<stop offset="0.152344" stop-color="rgb(86.424255%, 90.289307%, 95.655823%)" stop-opacity="1"/>
<stop offset="0.15625" stop-color="rgb(86.187744%, 90.12146%, 95.574951%)" stop-opacity="1"/>
<stop offset="0.160156" stop-color="rgb(85.949707%, 89.952087%, 95.49408%)" stop-opacity="1"/>
<stop offset="0.164062" stop-color="rgb(85.713196%, 89.784241%, 95.413208%)" stop-opacity="1"/>
<stop offset="0.167969" stop-color="rgb(85.475159%, 89.614868%, 95.330811%)" stop-opacity="1"/>
<stop offset="0.171875" stop-color="rgb(85.238647%, 89.447021%, 95.249939%)" stop-opacity="1"/>
<stop offset="0.175781" stop-color="rgb(85.00061%, 89.279175%, 95.169067%)" stop-opacity="1"/>
<stop offset="0.179687" stop-color="rgb(84.764099%, 89.111328%, 95.088196%)" stop-opacity="1"/>
<stop offset="0.183594" stop-color="rgb(84.526062%, 88.941956%, 95.005798%)" stop-opacity="1"/>
<stop offset="0.1875" stop-color="rgb(84.288025%, 88.774109%, 94.924927%)" stop-opacity="1"/>
<stop offset="0.191406" stop-color="rgb(84.049988%, 88.604736%, 94.844055%)" stop-opacity="1"/>
<stop offset="0.195312" stop-color="rgb(83.813477%, 88.43689%, 94.763184%)" stop-opacity="1"/>
<stop offset="0.199219" stop-color="rgb(83.575439%, 88.267517%, 94.682312%)" stop-opacity="1"/>
<stop offset="0.203125" stop-color="rgb(83.338928%, 88.09967%, 94.60144%)" stop-opacity="1"/>
<stop offset="0.207031" stop-color="rgb(83.100891%, 87.930298%, 94.519043%)" stop-opacity="1"/>
<stop offset="0.210937" stop-color="rgb(82.86438%, 87.762451%, 94.438171%)" stop-opacity="1"/>
<stop offset="0.214844" stop-color="rgb(82.626343%, 87.593079%, 94.3573%)" stop-opacity="1"/>
<stop offset="0.21875" stop-color="rgb(82.388306%, 87.425232%, 94.276428%)" stop-opacity="1"/>
<stop offset="0.222656" stop-color="rgb(82.150269%, 87.255859%, 94.194031%)" stop-opacity="1"/>
<stop offset="0.226562" stop-color="rgb(81.913757%, 87.088013%, 94.113159%)" stop-opacity="1"/>
<stop offset="0.230469" stop-color="rgb(81.67572%, 86.920166%, 94.032288%)" stop-opacity="1"/>
<stop offset="0.234375" stop-color="rgb(81.439209%, 86.752319%, 93.951416%)" stop-opacity="1"/>
<stop offset="0.238281" stop-color="rgb(81.201172%, 86.582947%, 93.870544%)" stop-opacity="1"/>
<stop offset="0.242187" stop-color="rgb(80.964661%, 86.4151%, 93.789673%)" stop-opacity="1"/>
<stop offset="0.246094" stop-color="rgb(80.726624%, 86.245728%, 93.707275%)" stop-opacity="1"/>
<stop offset="0.25" stop-color="rgb(80.490112%, 86.077881%, 93.626404%)" stop-opacity="1"/>
<stop offset="0.253906" stop-color="rgb(80.252075%, 85.908508%, 93.545532%)" stop-opacity="1"/>
<stop offset="0.257812" stop-color="rgb(80.014038%, 85.740662%, 93.464661%)" stop-opacity="1"/>
<stop offset="0.261719" stop-color="rgb(79.776001%, 85.571289%, 93.382263%)" stop-opacity="1"/>
<stop offset="0.265625" stop-color="rgb(79.53949%, 85.403442%, 93.301392%)" stop-opacity="1"/>
<stop offset="0.269531" stop-color="rgb(79.301453%, 85.23407%, 93.22052%)" stop-opacity="1"/>
<stop offset="0.273437" stop-color="rgb(79.064941%, 85.066223%, 93.139648%)" stop-opacity="1"/>
<stop offset="0.277344" stop-color="rgb(78.826904%, 84.896851%, 93.058777%)" stop-opacity="1"/>
<stop offset="0.28125" stop-color="rgb(78.590393%, 84.729004%, 92.977905%)" stop-opacity="1"/>
<stop offset="0.285156" stop-color="rgb(78.352356%, 84.561157%, 92.895508%)" stop-opacity="1"/>
<stop offset="0.289062" stop-color="rgb(78.114319%, 84.393311%, 92.814636%)" stop-opacity="1"/>
<stop offset="0.292969" stop-color="rgb(77.876282%, 84.223938%, 92.733765%)" stop-opacity="1"/>
<stop offset="0.296875" stop-color="rgb(77.639771%, 84.056091%, 92.652893%)" stop-opacity="1"/>
<stop offset="0.300781" stop-color="rgb(77.401733%, 83.886719%, 92.570496%)" stop-opacity="1"/>
<stop offset="0.304687" stop-color="rgb(77.165222%, 83.718872%, 92.489624%)" stop-opacity="1"/>
<stop offset="0.308594" stop-color="rgb(76.927185%, 83.5495%, 92.408752%)" stop-opacity="1"/>
<stop offset="0.3125" stop-color="rgb(76.690674%, 83.381653%, 92.327881%)" stop-opacity="1"/>
<stop offset="0.316406" stop-color="rgb(76.452637%, 83.21228%, 92.245483%)" stop-opacity="1"/>
<stop offset="0.320312" stop-color="rgb(76.216125%, 83.044434%, 92.164612%)" stop-opacity="1"/>
<stop offset="0.324219" stop-color="rgb(75.978088%, 82.875061%, 92.08374%)" stop-opacity="1"/>
<stop offset="0.328125" stop-color="rgb(75.740051%, 82.707214%, 92.002869%)" stop-opacity="1"/>
<stop offset="0.332031" stop-color="rgb(75.502014%, 82.537842%, 91.921997%)" stop-opacity="1"/>
<stop offset="0.335937" stop-color="rgb(75.265503%, 82.369995%, 91.841125%)" stop-opacity="1"/>
<stop offset="0.339844" stop-color="rgb(75.027466%, 82.200623%, 91.758728%)" stop-opacity="1"/>
<stop offset="0.34375" stop-color="rgb(74.790955%, 82.032776%, 91.677856%)" stop-opacity="1"/>
<stop offset="0.347656" stop-color="rgb(74.552917%, 81.864929%, 91.596985%)" stop-opacity="1"/>
<stop offset="0.351562" stop-color="rgb(74.316406%, 81.697083%, 91.516113%)" stop-opacity="1"/>
<stop offset="0.355469" stop-color="rgb(74.078369%, 81.52771%, 91.433716%)" stop-opacity="1"/>
<stop offset="0.359375" stop-color="rgb(73.841858%, 81.359863%, 91.352844%)" stop-opacity="1"/>
<stop offset="0.363281" stop-color="rgb(73.603821%, 81.190491%, 91.271973%)" stop-opacity="1"/>
<stop offset="0.367187" stop-color="rgb(73.365784%, 81.022644%, 91.191101%)" stop-opacity="1"/>
<stop offset="0.371094" stop-color="rgb(73.127747%, 80.853271%, 91.110229%)" stop-opacity="1"/>
<stop offset="0.375" stop-color="rgb(72.891235%, 80.685425%, 91.029358%)" stop-opacity="1"/>
<stop offset="0.378906" stop-color="rgb(72.653198%, 80.516052%, 90.94696%)" stop-opacity="1"/>
<stop offset="0.382812" stop-color="rgb(72.416687%, 80.348206%, 90.866089%)" stop-opacity="1"/>
<stop offset="0.386719" stop-color="rgb(72.17865%, 80.178833%, 90.785217%)" stop-opacity="1"/>
<stop offset="0.390625" stop-color="rgb(71.942139%, 80.010986%, 90.704346%)" stop-opacity="1"/>
<stop offset="0.394531" stop-color="rgb(71.704102%, 79.841614%, 90.621948%)" stop-opacity="1"/>
<stop offset="0.398437" stop-color="rgb(71.466064%, 79.673767%, 90.541077%)" stop-opacity="1"/>
<stop offset="0.402344" stop-color="rgb(71.228027%, 79.50592%, 90.460205%)" stop-opacity="1"/>
<stop offset="0.40625" stop-color="rgb(70.991516%, 79.338074%, 90.379333%)" stop-opacity="1"/>
<stop offset="0.410156" stop-color="rgb(70.753479%, 79.168701%, 90.296936%)" stop-opacity="1"/>
<stop offset="0.414062" stop-color="rgb(70.516968%, 79.000854%, 90.216064%)" stop-opacity="1"/>
<stop offset="0.417969" stop-color="rgb(70.278931%, 78.831482%, 90.135193%)" stop-opacity="1"/>
<stop offset="0.421875" stop-color="rgb(70.042419%, 78.663635%, 90.054321%)" stop-opacity="1"/>
<stop offset="0.425781" stop-color="rgb(69.804382%, 78.494263%, 89.97345%)" stop-opacity="1"/>
<stop offset="0.429687" stop-color="rgb(69.567871%, 78.326416%, 89.892578%)" stop-opacity="1"/>
<stop offset="0.433594" stop-color="rgb(69.329834%, 78.157043%, 89.810181%)" stop-opacity="1"/>
<stop offset="0.4375" stop-color="rgb(69.091797%, 77.989197%, 89.729309%)" stop-opacity="1"/>
<stop offset="0.441406" stop-color="rgb(68.85376%, 77.819824%, 89.648438%)" stop-opacity="1"/>
<stop offset="0.445312" stop-color="rgb(68.617249%, 77.651978%, 89.567566%)" stop-opacity="1"/>
<stop offset="0.449219" stop-color="rgb(68.379211%, 77.482605%, 89.485168%)" stop-opacity="1"/>
<stop offset="0.453125" stop-color="rgb(68.1427%, 77.314758%, 89.404297%)" stop-opacity="1"/>
<stop offset="0.457031" stop-color="rgb(67.904663%, 77.146912%, 89.323425%)" stop-opacity="1"/>
<stop offset="0.460937" stop-color="rgb(67.668152%, 76.979065%, 89.242554%)" stop-opacity="1"/>
<stop offset="0.464844" stop-color="rgb(67.430115%, 76.809692%, 89.161682%)" stop-opacity="1"/>
<stop offset="0.46875" stop-color="rgb(67.193604%, 76.641846%, 89.080811%)" stop-opacity="1"/>
<stop offset="0.472656" stop-color="rgb(66.955566%, 76.472473%, 88.998413%)" stop-opacity="1"/>
<stop offset="0.476562" stop-color="rgb(66.717529%, 76.304626%, 88.917542%)" stop-opacity="1"/>
<stop offset="0.480469" stop-color="rgb(66.479492%, 76.135254%, 88.83667%)" stop-opacity="1"/>
<stop offset="0.484375" stop-color="rgb(66.242981%, 75.967407%, 88.755798%)" stop-opacity="1"/>
<stop offset="0.488281" stop-color="rgb(66.004944%, 75.798035%, 88.673401%)" stop-opacity="1"/>
<stop offset="0.492187" stop-color="rgb(65.768433%, 75.630188%, 88.592529%)" stop-opacity="1"/>
<stop offset="0.496094" stop-color="rgb(65.530396%, 75.460815%, 88.511658%)" stop-opacity="1"/>
<stop offset="0.5" stop-color="rgb(65.293884%, 75.292969%, 88.430786%)" stop-opacity="1"/>
<stop offset="0.503906" stop-color="rgb(65.055847%, 75.123596%, 88.348389%)" stop-opacity="1"/>
<stop offset="0.507812" stop-color="rgb(64.81781%, 74.95575%, 88.267517%)" stop-opacity="1"/>
<stop offset="0.511719" stop-color="rgb(64.579773%, 74.786377%, 88.186646%)" stop-opacity="1"/>
<stop offset="0.515625" stop-color="rgb(64.343262%, 74.61853%, 88.105774%)" stop-opacity="1"/>
<stop offset="0.519531" stop-color="rgb(64.105225%, 74.450684%, 88.024902%)" stop-opacity="1"/>
<stop offset="0.523438" stop-color="rgb(63.868713%, 74.282837%, 87.944031%)" stop-opacity="1"/>
<stop offset="0.527344" stop-color="rgb(63.630676%, 74.113464%, 87.861633%)" stop-opacity="1"/>
<stop offset="0.53125" stop-color="rgb(63.394165%, 73.945618%, 87.780762%)" stop-opacity="1"/>
<stop offset="0.535156" stop-color="rgb(63.156128%, 73.776245%, 87.69989%)" stop-opacity="1"/>
<stop offset="0.539062" stop-color="rgb(62.919617%, 73.608398%, 87.619019%)" stop-opacity="1"/>
<stop offset="0.542969" stop-color="rgb(62.68158%, 73.439026%, 87.536621%)" stop-opacity="1"/>
<stop offset="0.546875" stop-color="rgb(62.443542%, 73.271179%, 87.45575%)" stop-opacity="1"/>
<stop offset="0.550781" stop-color="rgb(62.205505%, 73.101807%, 87.374878%)" stop-opacity="1"/>
<stop offset="0.554688" stop-color="rgb(61.968994%, 72.93396%, 87.294006%)" stop-opacity="1"/>
<stop offset="0.558594" stop-color="rgb(61.730957%, 72.764587%, 87.213135%)" stop-opacity="1"/>
<stop offset="0.5625" stop-color="rgb(61.494446%, 72.596741%, 87.132263%)" stop-opacity="1"/>
<stop offset="0.566406" stop-color="rgb(61.256409%, 72.427368%, 87.049866%)" stop-opacity="1"/>
<stop offset="0.570312" stop-color="rgb(61.019897%, 72.259521%, 86.968994%)" stop-opacity="1"/>
<stop offset="0.574219" stop-color="rgb(60.78186%, 72.091675%, 86.888123%)" stop-opacity="1"/>
<stop offset="0.578125" stop-color="rgb(60.543823%, 71.923828%, 86.807251%)" stop-opacity="1"/>
<stop offset="0.582031" stop-color="rgb(60.305786%, 71.754456%, 86.724854%)" stop-opacity="1"/>
<stop offset="0.585938" stop-color="rgb(60.069275%, 71.586609%, 86.643982%)" stop-opacity="1"/>
<stop offset="0.589844" stop-color="rgb(59.831238%, 71.417236%, 86.56311%)" stop-opacity="1"/>
<stop offset="0.59375" stop-color="rgb(59.594727%, 71.24939%, 86.482239%)" stop-opacity="1"/>
<stop offset="0.597656" stop-color="rgb(59.356689%, 71.080017%, 86.399841%)" stop-opacity="1"/>
<stop offset="0.601562" stop-color="rgb(59.120178%, 70.91217%, 86.31897%)" stop-opacity="1"/>
<stop offset="0.605469" stop-color="rgb(58.882141%, 70.742798%, 86.238098%)" stop-opacity="1"/>
<stop offset="0.609375" stop-color="rgb(58.64563%, 70.574951%, 86.157227%)" stop-opacity="1"/>
<stop offset="0.613281" stop-color="rgb(58.407593%, 70.405579%, 86.076355%)" stop-opacity="1"/>
<stop offset="0.617188" stop-color="rgb(58.169556%, 70.237732%, 85.995483%)" stop-opacity="1"/>
<stop offset="0.621094" stop-color="rgb(57.931519%, 70.068359%, 85.913086%)" stop-opacity="1"/>
<stop offset="0.625" stop-color="rgb(57.695007%, 69.900513%, 85.832214%)" stop-opacity="1"/>
<stop offset="0.628906" stop-color="rgb(57.45697%, 69.732666%, 85.751343%)" stop-opacity="1"/>
<stop offset="0.632812" stop-color="rgb(57.220459%, 69.564819%, 85.670471%)" stop-opacity="1"/>
<stop offset="0.636719" stop-color="rgb(56.982422%, 69.395447%, 85.588074%)" stop-opacity="1"/>
<stop offset="0.640625" stop-color="rgb(56.745911%, 69.2276%, 85.507202%)" stop-opacity="1"/>
<stop offset="0.644531" stop-color="rgb(56.507874%, 69.058228%, 85.426331%)" stop-opacity="1"/>
<stop offset="0.648438" stop-color="rgb(56.271362%, 68.890381%, 85.345459%)" stop-opacity="1"/>
<stop offset="0.652344" stop-color="rgb(56.033325%, 68.721008%, 85.264587%)" stop-opacity="1"/>
<stop offset="0.65625" stop-color="rgb(55.795288%, 68.553162%, 85.183716%)" stop-opacity="1"/>
<stop offset="0.660156" stop-color="rgb(55.557251%, 68.383789%, 85.101318%)" stop-opacity="1"/>
<stop offset="0.664062" stop-color="rgb(55.32074%, 68.215942%, 85.020447%)" stop-opacity="1"/>
<stop offset="0.667969" stop-color="rgb(55.082703%, 68.04657%, 84.939575%)" stop-opacity="1"/>
<stop offset="0.671875" stop-color="rgb(54.846191%, 67.878723%, 84.858704%)" stop-opacity="1"/>
<stop offset="0.675781" stop-color="rgb(54.608154%, 67.709351%, 84.776306%)" stop-opacity="1"/>
<stop offset="0.679688" stop-color="rgb(54.371643%, 67.541504%, 84.695435%)" stop-opacity="1"/>
<stop offset="0.683594" stop-color="rgb(54.133606%, 67.373657%, 84.614563%)" stop-opacity="1"/>
<stop offset="0.6875" stop-color="rgb(53.895569%, 67.205811%, 84.533691%)" stop-opacity="1"/>
<stop offset="0.691406" stop-color="rgb(53.657532%, 67.036438%, 84.451294%)" stop-opacity="1"/>
<stop offset="0.695312" stop-color="rgb(53.421021%, 66.868591%, 84.370422%)" stop-opacity="1"/>
<stop offset="0.699219" stop-color="rgb(53.182983%, 66.699219%, 84.289551%)" stop-opacity="1"/>
<stop offset="0.703125" stop-color="rgb(52.946472%, 66.531372%, 84.208679%)" stop-opacity="1"/>
<stop offset="0.707031" stop-color="rgb(52.708435%, 66.362%, 84.127808%)" stop-opacity="1"/>
<stop offset="0.710938" stop-color="rgb(52.471924%, 66.194153%, 84.046936%)" stop-opacity="1"/>
<stop offset="0.714844" stop-color="rgb(52.233887%, 66.02478%, 83.964539%)" stop-opacity="1"/>
<stop offset="0.71875" stop-color="rgb(51.997375%, 65.856934%, 83.883667%)" stop-opacity="1"/>
<stop offset="0.722656" stop-color="rgb(51.759338%, 65.687561%, 83.802795%)" stop-opacity="1"/>
<stop offset="0.726562" stop-color="rgb(51.521301%, 65.519714%, 83.721924%)" stop-opacity="1"/>
<stop offset="0.730469" stop-color="rgb(51.283264%, 65.350342%, 83.639526%)" stop-opacity="1"/>
<stop offset="0.734375" stop-color="rgb(51.046753%, 65.182495%, 83.558655%)" stop-opacity="1"/>
<stop offset="0.738281" stop-color="rgb(50.808716%, 65.013123%, 83.477783%)" stop-opacity="1"/>
<stop offset="0.742188" stop-color="rgb(50.572205%, 64.845276%, 83.396912%)" stop-opacity="1"/>
<stop offset="0.746094" stop-color="rgb(50.334167%, 64.677429%, 83.31604%)" stop-opacity="1"/>
<stop offset="0.75" stop-color="rgb(50.097656%, 64.509583%, 83.235168%)" stop-opacity="1"/>
<stop offset="0.753906" stop-color="rgb(49.859619%, 64.34021%, 83.152771%)" stop-opacity="1"/>
<stop offset="0.757812" stop-color="rgb(49.623108%, 64.172363%, 83.071899%)" stop-opacity="1"/>
<stop offset="0.761719" stop-color="rgb(49.385071%, 64.002991%, 82.991028%)" stop-opacity="1"/>
<stop offset="0.765625" stop-color="rgb(49.147034%, 63.835144%, 82.910156%)" stop-opacity="1"/>
<stop offset="0.769531" stop-color="rgb(48.908997%, 63.665771%, 82.827759%)" stop-opacity="1"/>
<stop offset="0.773438" stop-color="rgb(48.672485%, 63.497925%, 82.746887%)" stop-opacity="1"/>
<stop offset="0.777344" stop-color="rgb(48.434448%, 63.328552%, 82.666016%)" stop-opacity="1"/>
<stop offset="0.78125" stop-color="rgb(48.197937%, 63.160706%, 82.585144%)" stop-opacity="1"/>
<stop offset="0.785156" stop-color="rgb(47.9599%, 62.991333%, 82.502747%)" stop-opacity="1"/>
<stop offset="0.789062" stop-color="rgb(47.723389%, 62.823486%, 82.421875%)" stop-opacity="1"/>
<stop offset="0.792969" stop-color="rgb(47.485352%, 62.654114%, 82.341003%)" stop-opacity="1"/>
<stop offset="0.796875" stop-color="rgb(47.247314%, 62.486267%, 82.260132%)" stop-opacity="1"/>
<stop offset="0.800781" stop-color="rgb(47.009277%, 62.31842%, 82.17926%)" stop-opacity="1"/>
<stop offset="0.804688" stop-color="rgb(46.772766%, 62.150574%, 82.098389%)" stop-opacity="1"/>
<stop offset="0.808594" stop-color="rgb(46.534729%, 61.981201%, 82.015991%)" stop-opacity="1"/>
<stop offset="0.8125" stop-color="rgb(46.298218%, 61.813354%, 81.93512%)" stop-opacity="1"/>
<stop offset="0.816406" stop-color="rgb(46.060181%, 61.643982%, 81.854248%)" stop-opacity="1"/>
<stop offset="0.820312" stop-color="rgb(45.823669%, 61.476135%, 81.773376%)" stop-opacity="1"/>
<stop offset="0.824219" stop-color="rgb(45.585632%, 61.306763%, 81.690979%)" stop-opacity="1"/>
<stop offset="0.828125" stop-color="rgb(45.349121%, 61.138916%, 81.610107%)" stop-opacity="1"/>
<stop offset="0.832031" stop-color="rgb(45.111084%, 60.969543%, 81.529236%)" stop-opacity="1"/>
<stop offset="0.835938" stop-color="rgb(44.873047%, 60.801697%, 81.448364%)" stop-opacity="1"/>
<stop offset="0.839844" stop-color="rgb(44.63501%, 60.632324%, 81.367493%)" stop-opacity="1"/>
<stop offset="0.84375" stop-color="rgb(44.398499%, 60.464478%, 81.286621%)" stop-opacity="1"/>
<stop offset="0.847656" stop-color="rgb(44.160461%, 60.295105%, 81.204224%)" stop-opacity="1"/>
<stop offset="0.851562" stop-color="rgb(43.92395%, 60.127258%, 81.123352%)" stop-opacity="1"/>
<stop offset="0.855469" stop-color="rgb(43.685913%, 59.959412%, 81.04248%)" stop-opacity="1"/>
<stop offset="0.859375" stop-color="rgb(43.449402%, 59.791565%, 80.961609%)" stop-opacity="1"/>
<stop offset="0.863281" stop-color="rgb(43.211365%, 59.622192%, 80.879211%)" stop-opacity="1"/>
<stop offset="0.867188" stop-color="rgb(42.973328%, 59.454346%, 80.79834%)" stop-opacity="1"/>
<stop offset="0.871094" stop-color="rgb(42.735291%, 59.284973%, 80.717468%)" stop-opacity="1"/>
<stop offset="0.875" stop-color="rgb(42.498779%, 59.117126%, 80.636597%)" stop-opacity="1"/>
<stop offset="0.878906" stop-color="rgb(42.260742%, 58.947754%, 80.554199%)" stop-opacity="1"/>
<stop offset="0.882812" stop-color="rgb(42.024231%, 58.779907%, 80.473328%)" stop-opacity="1"/>
<stop offset="0.886719" stop-color="rgb(41.786194%, 58.610535%, 80.392456%)" stop-opacity="1"/>
<stop offset="0.890625" stop-color="rgb(41.549683%, 58.442688%, 80.311584%)" stop-opacity="1"/>
<stop offset="0.894531" stop-color="rgb(41.311646%, 58.273315%, 80.230713%)" stop-opacity="1"/>
<stop offset="0.898438" stop-color="rgb(41.075134%, 58.105469%, 80.149841%)" stop-opacity="1"/>
<stop offset="0.902344" stop-color="rgb(40.837097%, 57.936096%, 80.067444%)" stop-opacity="1"/>
<stop offset="0.90625" stop-color="rgb(40.59906%, 57.76825%, 79.986572%)" stop-opacity="1"/>
<stop offset="0.910156" stop-color="rgb(40.361023%, 57.598877%, 79.905701%)" stop-opacity="1"/>
<stop offset="0.914062" stop-color="rgb(40.124512%, 57.43103%, 79.824829%)" stop-opacity="1"/>
<stop offset="0.917969" stop-color="rgb(39.886475%, 57.263184%, 79.742432%)" stop-opacity="1"/>
<stop offset="0.921875" stop-color="rgb(39.649963%, 57.095337%, 79.66156%)" stop-opacity="1"/>
<stop offset="0.925781" stop-color="rgb(39.411926%, 56.925964%, 79.580688%)" stop-opacity="1"/>
<stop offset="0.929688" stop-color="rgb(39.175415%, 56.758118%, 79.499817%)" stop-opacity="1"/>
<stop offset="0.933594" stop-color="rgb(38.937378%, 56.588745%, 79.418945%)" stop-opacity="1"/>
<stop offset="0.9375" stop-color="rgb(38.700867%, 56.420898%, 79.338074%)" stop-opacity="1"/>
<stop offset="0.941406" stop-color="rgb(38.46283%, 56.251526%, 79.255676%)" stop-opacity="1"/>
<stop offset="0.945312" stop-color="rgb(38.224792%, 56.083679%, 79.174805%)" stop-opacity="1"/>
<stop offset="0.949219" stop-color="rgb(37.986755%, 55.914307%, 79.093933%)" stop-opacity="1"/>
<stop offset="0.953125" stop-color="rgb(37.750244%, 55.74646%, 79.013062%)" stop-opacity="1"/>
<stop offset="0.957031" stop-color="rgb(37.512207%, 55.577087%, 78.930664%)" stop-opacity="1"/>
<stop offset="0.960938" stop-color="rgb(37.275696%, 55.409241%, 78.849792%)" stop-opacity="1"/>
<stop offset="0.964844" stop-color="rgb(37.037659%, 55.239868%, 78.768921%)" stop-opacity="1"/>
<stop offset="0.96875" stop-color="rgb(36.801147%, 55.072021%, 78.688049%)" stop-opacity="1"/>
<stop offset="0.972656" stop-color="rgb(36.56311%, 54.904175%, 78.607178%)" stop-opacity="1"/>
<stop offset="0.976562" stop-color="rgb(36.325073%, 54.736328%, 78.526306%)" stop-opacity="1"/>
<stop offset="0.980469" stop-color="rgb(36.087036%, 54.566956%, 78.443909%)" stop-opacity="1"/>
<stop offset="0.984375" stop-color="rgb(35.850525%, 54.399109%, 78.363037%)" stop-opacity="1"/>
<stop offset="0.988281" stop-color="rgb(35.612488%, 54.229736%, 78.282166%)" stop-opacity="1"/>
<stop offset="0.992188" stop-color="rgb(35.375977%, 54.06189%, 78.201294%)" stop-opacity="1"/>
<stop offset="0.996094" stop-color="rgb(35.137939%, 53.892517%, 78.118896%)" stop-opacity="1"/>
<stop offset="1" stop-color="rgb(34.901428%, 53.72467%, 78.038025%)" stop-opacity="1"/>
</linearGradient>
</defs>
<path fill-rule="evenodd" fill="rgb(20.776367%, 43.138123%, 77.734375%)" fill-opacity="1" d="M 1936.488281 0 C 3001.578125 0 3872.980469 871.421875 3872.980469 1936.488281 C 3872.980469 3001.578125 3001.578125 3872.980469 1936.488281 3872.980469 C 871.414062 3872.980469 0 3001.578125 0 1936.488281 C 0 871.421875 871.414062 0 1936.488281 0 "/>
<g clip-path="url(#clip-0)">
<g clip-path="url(#clip-1)">
<path fill-rule="nonzero" fill="url(#linear-pattern-0)" d="M 697.167969 697.171875 L 697.167969 3175.820312 L 3175.820312 3175.820312 L 3175.820312 697.171875 Z M 697.167969 697.171875 "/>
</g>
</g>
</svg>
